<svg xmlns="http://www.w3.org/2000/svg" viewBox="0 0 163.03 163.03"><defs><style>.cls-1{fill:none;}.cls-2,.cls-3{fill-rule:evenodd;}.cls-3{fill:#ee2e2e;}</style></defs><g id="Слой_2" data-name="Слой 2"><g id="Слой_1-2" data-name="Слой 1"><rect class="cls-1" width="163.03" height="163.03"/><path class="cls-2" d="M54,72a1.57,1.57,0,0,0,.62-.13,1.49,1.49,0,0,0,.54-.37,1.56,1.56,0,0,0,.38-.54,1.67,1.67,0,0,0,.12-.62,1.75,1.75,0,0,0-.12-.62,2.4,2.4,0,0,0-.34-.53,1.56,1.56,0,0,0-.54-.38,1.76,1.76,0,0,0-.66-.12H49V72Zm0-8.81H49v3.31h5a1.57,1.57,0,0,0,.62-.13,1.49,1.49,0,0,0,.54-.37,1.62,1.62,0,0,0,.38-.53,1.81,1.81,0,0,0,.12-.67,1.75,1.75,0,0,0-.12-.62,1.62,1.62,0,0,0-.38-.53,1.66,1.66,0,0,0-.54-.38A3,3,0,0,0,54,63.22Zm2.7,4.42a3.64,3.64,0,0,1,1.17,2.77,3.48,3.48,0,0,1-.3,1.49,4.49,4.49,0,0,1-.83,1.24,3.9,3.9,0,0,1-1.25.83,3.48,3.48,0,0,1-1.49.29h-7.2V61h7.24a3.81,3.81,0,0,1,1.5.29,3.85,3.85,0,0,1,1.24.83,3.72,3.72,0,0,1,.84,1.24,3.64,3.64,0,0,1,.29,1.49A3.92,3.92,0,0,1,56.73,67.64Z"/><path class="cls-2" d="M70.63,61v2.19H64v3.31h6.66v2.23H64V72h6.66v2.23H61.77V61Z"/><path class="cls-2" d="M79.16,69.84h3.91L81.12,66Zm5,2.19H78.08L77,74.26h-2.5L81.12,61l6.66,13.23h-2.5Z"/><path class="cls-2" d="M100.93,68.76a5.57,5.57,0,0,1-9.49,3.93,5.37,5.37,0,0,1-1.62-3.93V61H92v7.73a3.2,3.2,0,0,0,1,2.32,3.27,3.27,0,0,0,2.37,1,3.08,3.08,0,0,0,2.33-1,3.13,3.13,0,0,0,1-2.32V61h2.25Z"/><path class="cls-2" d="M104.8,61h11.11v2.19h-4.45v11h-2.21v-11H104.8Z"/><path class="cls-2" d="M130.18,61H133l-5.49,7v6.28h-2.2v-6.2l-5.58-7h2.83l3.79,4.8Z"/><path class="cls-3" d="M34.51,60.66a4.4,4.4,0,0,0-2.75,3.47v6.66H38V64.13a15.83,15.83,0,0,0-3.41-3.47Z"/><path class="cls-2" d="M38.84,84.92V71.2H30.93V84.92L30.51,86v1.12h8.74V86Z"/><path d="M39.79,87.65H30v14.6h9.78Z"/><path class="cls-2" d="M49.45,93.36v8.8H46.7V80.87h2.75v9.72h6.62V80.87h2.78v21.29H56.07v-8.8Z"/><path class="cls-2" d="M74.71,83.35a8,8,0,0,0-5.79,2.36,7.83,7.83,0,0,0-2.37,5.75A7.69,7.69,0,0,0,69,97.2a8.17,8.17,0,0,0,11.57,0,8.15,8.15,0,0,0,0-11.49A8.37,8.37,0,0,0,74.71,83.35Zm7.74.42a10.84,10.84,0,0,1,0,15.38,11,11,0,0,1-15.48,0,10.31,10.31,0,0,1-3.25-7.65,10.43,10.43,0,0,1,3.21-7.69,10.64,10.64,0,0,1,7.74-3.18A10.5,10.5,0,0,1,82.45,83.77Z"/><path class="cls-2" d="M90.57,102.16V80.87h2.74V99.39H101v2.77Z"/><path d="M108.46,80.87h-2.79v21.29h2.79Z"/><path class="cls-2" d="M130.52,97.08l2.08,1.86a11.74,11.74,0,0,1-8,3.43,10.65,10.65,0,0,1-7.75-3.18,10.47,10.47,0,0,1-3.2-7.69,10.89,10.89,0,0,1,10.95-10.87,11.88,11.88,0,0,1,8,3.43l-2.08,1.86a8.94,8.94,0,0,0-6-2.53,7.86,7.86,0,0,0-5.75,2.36,7.75,7.75,0,0,0-2.37,5.71,8.07,8.07,0,0,0,8.12,8.1A8.72,8.72,0,0,0,130.52,97.08Z"/></g></g></svg>