<svg xmlns="http://www.w3.org/2000/svg" width="41.734" height="43.098" viewBox="0 0 68.72 70.97" shape-rendering="geometricPrecision" text-rendering="geometricPrecision" image-rendering="optimizeQuality" fill-rule="evenodd" clip-rule="evenodd"><defs><style>.fil0{fill:#fff}</style></defs><path class="fil0" d="M56.18 26.84c.02-6.45.68-11.2-1.78-16.78-1.81-4.12-6.15-8.35-10.79-9.41C39.56-.28 28.57-.2 24.6.77c-7.71 1.89-12.38 9.99-12.41 17.73-.01 1.64-.36 7.34.26 8.25 17.62 7.48 36.38 2.54 43.74.08z"/><path class="fil0" d="M5.51 42.92c0-2.8.4-5.49 1.18-8.06l-.35-.11C4.47 33.62.24 32 .01 29.32c-.16-1.88 1.72-6.11 6.69-2.89 21.03 11.25 38.5 6.51 49.14 2.73 5.47-1.95 8.43-4.98 10.6-3.72 3.73 1.46 2.41 5.79-.65 6.64-1.44.75-2.96 1.45-4.53 2.09.96 2.8 1.44 5.73 1.44 8.75 0 3.83-.71 7.44-2.11 10.79-1.4 3.37-3.46 6.34-6.15 8.94-2.86 2.73-6.02 4.81-9.48 6.21A29.05 29.05 0 0134 70.97c-3.78 0-7.38-.71-10.86-2.11-3.46-1.4-6.54-3.44-9.25-6.09-2.73-2.71-4.82-5.74-6.24-9.1-1.42-3.35-2.13-6.94-2.13-10.73zm44.64.11c0-3.01.16-4.1-.47-5.31-4.78 1.05-9.68 1.67-14.32 1.81-5.98.1-11.35-.46-16.65-1.51-.38 1.64-.66 3.47-.66 5.01 0 4.82 1.57 8.9 4.69 12.24 3.12 3.35 6.9 5.01 11.37 5.01 4.45 0 8.23-1.66 11.35-5.01 3.12-3.35 4.69-7.42 4.69-12.24z"/></svg>