<svg width="103" height="43" viewBox="0 0 103 43" fill="none" xmlns="http://www.w3.org/2000/svg">
<path fill-rule="evenodd" clip-rule="evenodd" d="M24.0121 12.0127C24.2202 12.0127 24.4283 11.9714 24.6363 11.8887C24.8444 11.806 25.0109 11.682 25.1773 11.5166C25.3438 11.3513 25.4687 11.1859 25.5519 10.9792C25.6351 10.7725 25.6767 10.5658 25.6767 10.3591C25.6767 10.1525 25.6351 9.94576 25.5519 9.73907C25.4687 9.53237 25.3438 9.36702 25.219 9.20166C25.0525 9.03631 24.886 8.91229 24.678 8.82961C24.4699 8.74694 24.2618 8.7056 24.0121 8.7056H19.0182V12.0127H24.0121ZM24.0121 3.20755H19.0182V6.51465H24.0121C24.2202 6.51465 24.4283 6.47331 24.6363 6.39063C24.8444 6.30795 25.0109 6.18394 25.1773 6.01858C25.3438 5.85323 25.4687 5.68787 25.5519 5.48118C25.6351 5.27449 25.6767 5.06779 25.6767 4.81976C25.6767 4.61307 25.6351 4.40637 25.5519 4.19968C25.4687 3.99299 25.3438 3.82763 25.1773 3.66228C25.0109 3.49692 24.8444 3.37291 24.6363 3.29023C24.4699 3.24889 24.2202 3.20755 24.0121 3.20755ZM26.7171 7.63079C27.5079 8.37489 27.8824 9.28434 27.8824 10.4005C27.8824 10.9379 27.7992 11.434 27.5911 11.8887C27.383 12.3434 27.0917 12.7568 26.7588 13.1288C26.4258 13.4595 26.0097 13.7489 25.5103 13.9556C25.0525 14.1623 24.5531 14.245 24.0121 14.245H16.8125V1.0166H24.0537C24.5531 1.0166 25.0525 1.09928 25.5519 1.30597C26.0513 1.51267 26.4675 1.80204 26.8004 2.13275C27.1333 2.46346 27.4246 2.87684 27.6327 3.37291C27.8408 3.82763 27.924 4.3237 27.924 4.8611C27.8824 5.93591 27.5079 6.84536 26.7171 7.63079Z" fill="black"/>
<path fill-rule="evenodd" clip-rule="evenodd" d="M40.6172 1.0166V3.20755H33.9586V6.51465H40.6172V8.74694H33.9586V12.0127H40.6172V14.245H31.7529V1.0166H40.6172Z" fill="black"/>
<path fill-rule="evenodd" clip-rule="evenodd" d="M49.1489 9.82174H53.0608L51.1049 5.93591L49.1489 9.82174ZM54.1845 12.0127H48.0669L46.9433 14.245H44.4463L51.1049 1.0166L57.7635 14.245H55.2665L54.1845 12.0127Z" fill="black"/>
<path fill-rule="evenodd" clip-rule="evenodd" d="M70.9143 8.74694C70.9143 10.2765 70.3732 11.558 69.2912 12.6741C68.2092 13.7489 66.8775 14.2863 65.3377 14.2863C63.8395 14.2863 62.5078 13.7489 61.4258 12.6741C60.3437 11.5993 59.8027 10.2765 59.8027 8.74694V1.0166H62.0084V8.74694C62.0084 9.65639 62.3413 10.4418 62.9656 11.0619C63.6314 11.7233 64.4221 12.054 65.3377 12.054C66.2532 12.054 67.044 11.7233 67.6682 11.0619C68.3341 10.4005 68.667 9.65639 68.667 8.74694V1.0166H70.9143V8.74694Z" fill="black"/>
<path fill-rule="evenodd" clip-rule="evenodd" d="M74.7842 1.0166H85.8957V3.20755H81.4428V14.245H79.2371V3.20755H74.7842V1.0166Z" fill="black"/>
<path fill-rule="evenodd" clip-rule="evenodd" d="M100.17 1.0166H103L97.5068 7.9615V14.245H95.3012V8.04418L89.7246 1.0166H92.5545L96.3416 5.81189L100.17 1.0166Z" fill="black"/>
<path fill-rule="evenodd" clip-rule="evenodd" d="M4.49471 0.644531C2.99653 1.34729 1.99774 2.42209 1.74805 4.11698V10.7725H7.99047V4.11698C6.99168 2.7528 5.86805 1.59532 4.57795 0.644531H4.49471Z" fill="#EE2E2E"/>
<path fill-rule="evenodd" clip-rule="evenodd" d="M8.82226 24.9102V11.1858H0.915185V24.9102L0.499023 26.0264V27.1425H9.23842V26.0264L8.82226 24.9102Z" fill="black"/>
<path d="M9.7798 27.6387H0V42.2312H9.7798V27.6387Z" fill="black"/>
<path fill-rule="evenodd" clip-rule="evenodd" d="M19.4351 33.3434V42.1486H16.6885V20.8591H19.4351V30.5737H26.0521V20.8591H28.8404V42.1486H26.0521V33.3434H19.4351Z" fill="black"/>
<path fill-rule="evenodd" clip-rule="evenodd" d="M44.6956 23.3396C42.4484 23.3396 40.534 24.125 38.911 25.6959C37.3296 27.2668 36.5389 29.2097 36.5389 31.442C36.5389 33.6743 37.3296 35.6172 38.9526 37.1881C40.534 38.7589 42.49 39.5857 44.7373 39.5857C46.9845 39.5857 48.8989 38.8003 50.5219 37.1881C52.1033 35.6172 52.894 33.6743 52.894 31.442C52.894 29.2097 52.1033 27.3081 50.5219 25.6959C48.8573 24.1664 46.9429 23.3396 44.6956 23.3396ZM52.4363 23.753C54.5587 25.8613 55.6407 28.4656 55.6407 31.442C55.6407 34.4597 54.5587 37.0227 52.4363 39.131C50.3138 41.2393 47.692 42.3141 44.6956 42.3141C41.6577 42.3141 39.0775 41.2393 36.955 39.131C34.791 37.0227 33.709 34.4597 33.709 31.4833C33.709 28.4656 34.791 25.9026 36.9134 23.7943C39.0359 21.6861 41.6577 20.6113 44.654 20.6113C47.692 20.5699 50.2722 21.6447 52.4363 23.753Z" fill="black"/>
<path fill-rule="evenodd" clip-rule="evenodd" d="M60.5518 42.1486V20.8591H63.2984V39.3789H70.9558V42.1486H60.5518Z" fill="black"/>
<path d="M78.4465 20.8591H75.6582V42.1486H78.4465V20.8591Z" fill="black"/>
<path fill-rule="evenodd" clip-rule="evenodd" d="M100.503 37.0639L102.583 38.9241C100.045 41.2391 97.3814 42.3552 94.5515 42.3552C91.5135 42.3552 88.9333 41.2804 86.8109 39.1722C84.6885 37.0639 83.6064 34.5009 83.6064 31.4832C83.6064 28.5068 84.6885 25.9438 86.8109 23.7942C88.9333 21.6859 91.5135 20.6111 94.5515 20.6111C97.3814 20.6111 100.045 21.7686 102.583 24.0422L100.503 25.9024C98.5883 24.2076 96.5907 23.3808 94.5515 23.3808C92.3042 23.3808 90.3899 24.1662 88.8085 25.7371C87.2271 27.308 86.4363 29.2095 86.4363 31.4418C86.4363 33.6741 87.2271 35.5757 88.8085 37.1879C90.3899 38.7588 92.3042 39.5442 94.5515 39.5442C96.5907 39.5855 98.5883 38.7588 100.503 37.0639Z" fill="black"/>
</svg>
