<svg width="177" height="72" viewBox="0 0 177 72" fill="none" xmlns="http://www.w3.org/2000/svg">
<g clip-path="url(#clip0)">
<path fill-rule="evenodd" clip-rule="evenodd" d="M41.2647 19.5356C41.6223 19.5356 41.9799 19.4646 42.3374 19.3225C42.695 19.1804 42.9811 18.9673 43.2671 18.6831C43.5532 18.399 43.7677 18.1148 43.9108 17.7596C44.0538 17.4044 44.1253 17.0493 44.1253 16.6941C44.1253 16.3389 44.0538 15.9837 43.9108 15.6285C43.7677 15.2733 43.5532 14.9891 43.3386 14.705C43.0526 14.4208 42.7665 14.2077 42.4089 14.0656C42.0514 13.9236 41.6938 13.8525 41.2647 13.8525H32.6829V19.5356H41.2647ZM41.2647 4.40444H32.6829V10.0875H41.2647C41.6223 10.0875 41.9799 10.0165 42.3374 9.87439C42.695 9.73231 42.9811 9.5192 43.2671 9.23504C43.5532 8.95089 43.7677 8.66674 43.9108 8.31154C44.0538 7.95635 44.1253 7.60116 44.1253 7.17493C44.1253 6.81974 44.0538 6.46455 43.9108 6.10936C43.7677 5.75416 43.5532 5.47001 43.2671 5.18586C42.9811 4.9017 42.695 4.68859 42.3374 4.54651C42.0514 4.47547 41.6223 4.40444 41.2647 4.40444ZM45.9132 12.0055C47.272 13.2842 47.9156 14.8471 47.9156 16.7651C47.9156 17.6886 47.7726 18.5411 47.415 19.3225C47.0574 20.1039 46.5568 20.8143 45.9847 21.4536C45.4126 22.0219 44.6974 22.5192 43.8392 22.8744C43.0526 23.2296 42.1944 23.3717 41.2647 23.3717H28.8926V0.639404H41.3362C42.1944 0.639404 43.0526 0.781481 43.9108 1.13667C44.7689 1.49186 45.4841 1.98913 46.0562 2.55744C46.6283 3.12575 47.1289 3.83613 47.4865 4.68859C47.8441 5.47001 47.9871 6.32247 47.9871 7.24597C47.9156 9.09297 47.272 10.6558 45.9132 12.0055Z" fill="white"/>
<path fill-rule="evenodd" clip-rule="evenodd" d="M69.7991 0.639404V4.40444H58.3567V10.0875H69.7991V13.9236H58.3567V19.5356H69.7991V23.3717H54.5664V0.639404H69.7991Z" fill="white"/>
<path fill-rule="evenodd" clip-rule="evenodd" d="M84.4591 15.7706H91.1816L87.8204 9.09297L84.4591 15.7706ZM93.1125 19.5356H82.5997L80.6688 23.3717H76.3779L87.8204 0.639404L99.2628 23.3717H94.9719L93.1125 19.5356Z" fill="white"/>
<path fill-rule="evenodd" clip-rule="evenodd" d="M121.862 13.9236C121.862 16.552 120.932 18.7542 119.073 20.6722C117.214 22.5192 114.925 23.4427 112.279 23.4427C109.705 23.4427 107.416 22.5192 105.557 20.6722C103.697 18.8252 102.768 16.552 102.768 13.9236V0.639404H106.558V13.9236C106.558 15.4864 107.13 16.8361 108.203 17.9017C109.347 19.0383 110.706 19.6066 112.279 19.6066C113.852 19.6066 115.211 19.0383 116.284 17.9017C117.428 16.7651 118 15.4864 118 13.9236V0.639404H121.862V13.9236Z" fill="white"/>
<path fill-rule="evenodd" clip-rule="evenodd" d="M128.513 0.639404H147.607V4.40444H139.955V23.3717H136.165V4.40444H128.513V0.639404Z" fill="white"/>
<path fill-rule="evenodd" clip-rule="evenodd" d="M172.137 0.639404H177L167.56 12.5738V23.3717H163.77V12.7159L154.187 0.639404H159.05L165.557 8.87985L172.137 0.639404Z" fill="white"/>
<path fill-rule="evenodd" clip-rule="evenodd" d="M7.72391 0C5.14936 1.20765 3.433 3.05465 3.00391 5.96722V17.4044H13.7312V5.96722C12.0148 3.62295 10.0839 1.63388 7.86694 0H7.72391Z" fill="#EE2E2E"/>
<path fill-rule="evenodd" clip-rule="evenodd" d="M15.1614 41.6995V18.1148H1.57355V41.6995L0.858398 43.6176V45.5356H15.8766V43.6176L15.1614 41.6995Z" fill="white"/>
<path d="M16.8061 46.388H0V71.4645H16.8061V46.388Z" fill="white"/>
<path fill-rule="evenodd" clip-rule="evenodd" d="M33.3977 56.1914V71.3225H28.6777V34.7378H33.3977V51.4318H44.7686V34.7378H49.5602V71.3225H44.7686V56.1914H33.3977Z" fill="white"/>
<path fill-rule="evenodd" clip-rule="evenodd" d="M76.8077 39.0001C72.9459 39.0001 69.6562 40.3498 66.8671 43.0493C64.1495 45.7487 62.7908 49.0875 62.7908 52.9236C62.7908 56.7597 64.1495 60.0985 66.9386 62.7979C69.6562 65.4974 73.0174 66.9181 76.8792 66.9181C80.7411 66.9181 84.0308 65.5684 86.8198 62.7979C89.5374 60.0985 90.8962 56.7597 90.8962 52.9236C90.8962 49.0875 89.5374 45.8198 86.8198 43.0493C83.9592 40.4208 80.6695 39.0001 76.8077 39.0001ZM90.1095 39.7105C93.7568 43.3334 95.6162 47.8088 95.6162 52.9236C95.6162 58.1094 93.7568 62.5138 90.1095 66.1367C86.4623 69.7597 81.9568 71.6067 76.8077 71.6067C71.5871 71.6067 67.1532 69.7597 63.5059 66.1367C59.7871 62.5138 57.9277 58.1094 57.9277 52.9946C57.9277 47.8088 59.7871 43.4045 63.4344 39.7815C67.0817 36.1585 71.5871 34.3115 76.7362 34.3115C81.9568 34.2405 86.3908 36.0875 90.1095 39.7105Z" fill="white"/>
<path fill-rule="evenodd" clip-rule="evenodd" d="M104.055 71.3225V34.7378H108.775V66.563H121.933V71.3225H104.055Z" fill="white"/>
<path d="M134.806 34.7378H130.015V71.3225H134.806V34.7378Z" fill="white"/>
<path fill-rule="evenodd" clip-rule="evenodd" d="M172.709 62.5847L176.285 65.7815C171.922 69.7596 167.345 71.6777 162.482 71.6777C157.262 71.6777 152.828 69.8307 149.181 66.2077C145.533 62.5847 143.674 58.1804 143.674 52.9946C143.674 47.8798 145.533 43.4754 149.181 39.7814C152.828 36.1585 157.262 34.3115 162.482 34.3115C167.345 34.3115 171.922 36.3006 176.285 40.2077L172.709 43.4044C169.419 40.4918 165.987 39.0711 162.482 39.0711C158.62 39.0711 155.331 40.4208 152.613 43.1202C149.896 45.8197 148.537 49.0875 148.537 52.9235C148.537 56.7596 149.896 60.0274 152.613 62.7979C155.331 65.4973 158.62 66.847 162.482 66.847C165.987 66.9181 169.419 65.4973 172.709 62.5847Z" fill="white"/>
</g>
<defs>
<clipPath id="clip0">
<rect width="177" height="71.6777" fill="white"/>
</clipPath>
</defs>
</svg>
