<svg width="40" height="40" viewBox="0 0 40 40" fill="none" xmlns="http://www.w3.org/2000/svg">
<path d="M35.8984 10.5053L20.2734 1.4844C20.1903 1.4364 20.096 1.41113 20 1.41113C19.904 1.41113 19.8097 1.4364 19.7266 1.4844L4.10156 10.5053C4.01843 10.5533 3.94939 10.6224 3.9014 10.7055C3.8534 10.7886 3.82813 10.8829 3.82812 10.9789V29.0211C3.82813 29.1171 3.8534 29.2114 3.9014 29.2946C3.94939 29.3777 4.01843 29.4467 4.10156 29.4947L19.7266 38.5157C19.8097 38.5636 19.904 38.5889 20 38.5889C20.096 38.5889 20.1903 38.5636 20.2734 38.5157L35.8984 29.4945C35.9816 29.4465 36.0506 29.3774 36.0986 29.2943C36.1466 29.2112 36.1719 29.1169 36.1719 29.0209V10.9789C36.1719 10.8829 36.1466 10.7886 36.0986 10.7055C36.0506 10.6224 35.9816 10.5533 35.8984 10.5053ZM20 2.58932L26.5644 6.37924L12.0342 14.7682L5.46984 10.9783L20 2.58932ZM19.4531 37.095L4.92188 28.7054V11.9249L19.4531 20.3146V37.095ZM20 19.3672L13.128 15.3996L27.6582 7.01073L34.5302 10.9783L20 19.3672ZM35.0781 28.7054L20.5469 37.095V20.3146L35.0781 11.9249V28.7054Z" fill="black"/>
<path d="M35.8984 10.5053L20.2734 1.4844C20.1903 1.4364 20.096 1.41113 20 1.41113C19.904 1.41113 19.8097 1.4364 19.7266 1.4844L4.10156 10.5053C4.01843 10.5533 3.94939 10.6224 3.9014 10.7055C3.8534 10.7886 3.82813 10.8829 3.82812 10.9789V29.0211C3.82813 29.1171 3.8534 29.2114 3.9014 29.2946C3.94939 29.3777 4.01843 29.4467 4.10156 29.4947L19.7266 38.5157C19.8097 38.5636 19.904 38.5889 20 38.5889C20.096 38.5889 20.1903 38.5636 20.2734 38.5157L35.8984 29.4945C35.9816 29.4465 36.0506 29.3774 36.0986 29.2943C36.1466 29.2112 36.1719 29.1169 36.1719 29.0209V10.9789C36.1719 10.8829 36.1466 10.7886 36.0986 10.7055C36.0506 10.6224 35.9816 10.5533 35.8984 10.5053ZM20 2.58932L26.5644 6.37924L12.0342 14.7682L5.46984 10.9783L20 2.58932ZM19.4531 37.095L4.92188 28.7054V11.9249L19.4531 20.3146V37.095ZM20 19.3672L13.128 15.3996L27.6582 7.01073L34.5302 10.9783L20 19.3672ZM35.0781 28.7054L20.5469 37.095V20.3146L35.0781 11.9249V28.7054Z" fill="black"/>
</svg>
