<svg width="18" height="18" viewBox="0 0 18 18" fill="none" xmlns="http://www.w3.org/2000/svg">
<path d="M16.0455 6.02002C15.9655 5.22002 15.2855 4.6 14.4655 4.6H13.0055V4.23999C13.0055 1.89999 11.2855 0 9.04546 0H8.96548C6.74548 0 5.00547 1.89999 5.00547 4.23999V4.6H3.54546C2.72546 4.6 2.06548 5.22002 1.96548 6.02002L0.80547 17.1C0.78547 17.32 0.84547 17.56 1.00547 17.72C1.16547 17.88 1.36547 17.98 1.60547 17.98H16.4055C16.6255 17.98 16.8455 17.88 17.0055 17.72C17.1655 17.56 17.2255 17.32 17.2055 17.1L16.0455 6.02002ZM6.60547 4.23999C6.60547 2.77999 7.62548 1.6 8.96548 1.6H9.04546C10.3855 1.6 11.4055 2.77999 11.4055 4.23999V4.6H6.60547V4.23999ZM2.48547 16.4L3.54546 6.2H14.4255L15.4855 16.4H2.48547Z" fill="black"/>
</svg>
