<svg width="13" height="13" viewBox="0 0 13 13" fill="none" xmlns="http://www.w3.org/2000/svg">
<path d="M1.66861 0H11.3315C12.2492 0 13 0.679398 13 1.66846V11.3315C13 12.3206 12.2492 13 11.3315 13H1.66861C0.750683 13 0 12.3206 0 11.3315V1.66846C0 0.679398 0.750683 0 1.66861 0ZM9.47003 1.44436C9.14808 1.44436 8.88499 1.70757 8.88499 2.02965V3.43049C8.88499 3.75244 9.14808 4.01579 9.47003 4.01579H10.9394C11.2613 4.01579 11.5247 3.75244 11.5247 3.43049V2.02965C11.5247 1.70757 11.2613 1.44436 10.9394 1.44436H9.47003ZM11.5308 5.49765H10.3866C10.4949 5.8511 10.5535 6.2255 10.5535 6.61285C10.5535 8.77518 8.74404 10.528 6.51241 10.528C4.28092 10.528 2.47175 8.77518 2.47175 6.61285C2.47175 6.22524 2.53022 5.85097 2.6386 5.49765H1.44464V10.989C1.44464 11.2732 1.67716 11.5059 1.96147 11.5059H11.0142C11.2985 11.5059 11.5311 11.2733 11.5311 10.989V5.49765H11.5308ZM6.51228 3.94198C5.07045 3.94198 3.90144 5.07453 3.90144 6.47177C3.90144 7.86901 5.07045 9.00156 6.51228 9.00156C7.95425 9.00156 9.12339 7.86901 9.12339 6.47177C9.12339 5.07453 7.95438 3.94198 6.51228 3.94198Z" fill="white"/>
</svg>
