<svg width="16" height="16" viewBox="0 0 16 16" fill="none" xmlns="http://www.w3.org/2000/svg">
<path fill-rule="evenodd" clip-rule="evenodd" d="M1.33301 7.99992C1.33301 7.63173 1.63148 7.33325 1.99967 7.33325H13.9997C14.3679 7.33325 14.6663 7.63173 14.6663 7.99992C14.6663 8.36811 14.3679 8.66659 13.9997 8.66659H1.99967C1.63148 8.66659 1.33301 8.36811 1.33301 7.99992Z" fill="black"/>
<path fill-rule="evenodd" clip-rule="evenodd" d="M1.33301 3.99992C1.33301 3.63173 1.63148 3.33325 1.99967 3.33325H13.9997C14.3679 3.33325 14.6663 3.63173 14.6663 3.99992C14.6663 4.36811 14.3679 4.66659 13.9997 4.66659H1.99967C1.63148 4.66659 1.33301 4.36811 1.33301 3.99992Z" fill="black"/>
<path fill-rule="evenodd" clip-rule="evenodd" d="M1.33301 11.9999C1.33301 11.6317 1.63148 11.3333 1.99967 11.3333H13.9997C14.3679 11.3333 14.6663 11.6317 14.6663 11.9999C14.6663 12.3681 14.3679 12.6666 13.9997 12.6666H1.99967C1.63148 12.6666 1.33301 12.3681 1.33301 11.9999Z" fill="black"/>
</svg>
