<svg width="18" height="18" viewBox="0 0 18 18" fill="none" xmlns="http://www.w3.org/2000/svg">
<path d="M11.3646 0.26001C7.94461 0.26001 5.16461 3.08001 5.16461 6.52001C5.16461 7.98001 5.66461 9.30002 6.48461 10.38L0.604609 16.32C0.264609 16.68 0.264609 17.24 0.604609 17.58C0.784609 17.76 1.00461 17.84 1.22461 17.84C1.46461 17.84 1.68461 17.76 1.86461 17.58L7.74461 11.62C8.76461 12.36 10.0046 12.78 11.3446 12.78C14.7646 12.78 17.5446 9.96001 17.5446 6.52001C17.5646 3.06001 14.7846 0.26001 11.3646 0.26001ZM11.3646 11.2C8.82461 11.2 6.76461 9.10001 6.76461 6.52001C6.76461 3.94001 8.82461 1.84001 11.3646 1.84001C13.9046 1.84001 15.9646 3.94001 15.9646 6.52001C15.9646 9.10001 13.9046 11.2 11.3646 11.2Z" fill="black"/>
</svg>
