<svg width="14" height="10" viewBox="0 0 14 10" fill="none" xmlns="http://www.w3.org/2000/svg">
<path d="M14 1.18316C13.4847 1.38393 12.9318 1.5201 12.3509 1.58089C12.9441 1.26855 13.3981 0.773135 13.6133 0.184624C13.0569 0.47387 12.4428 0.683901 11.7884 0.797757C11.2644 0.306184 10.519 0 9.69227 0C8.1062 0 6.82018 1.13086 6.82018 2.52481C6.82018 2.72251 6.84555 2.9156 6.89455 3.10024C4.50801 2.99484 2.39178 1.98938 0.975426 0.46156C0.727841 0.833905 0.586994 1.26776 0.586994 1.73089C0.586994 2.60712 1.0944 3.38026 1.86427 3.83258C1.3936 3.81874 0.950926 3.70489 0.563386 3.51564V3.54718C0.563386 4.77035 1.5537 5.79119 2.86682 6.02353C2.62624 6.08046 2.37255 6.112 2.11009 6.112C1.92464 6.112 1.74529 6.09584 1.56944 6.06507C1.93511 7.06899 2.99543 7.79904 4.25171 7.81905C3.26926 8.49603 2.03048 8.89837 0.684995 8.89837C0.453171 8.89837 0.224824 8.88606 0 8.86375C1.27114 9.58151 2.78024 10 4.40218 10C9.68532 10 12.5732 6.15201 12.5732 2.81484L12.5635 2.4879C13.1278 2.134 13.6159 1.68935 14 1.18316Z" fill="white"/>
</svg>
