<svg width="18" height="16" viewBox="0 0 18 16" fill="none" xmlns="http://www.w3.org/2000/svg">
<path d="M17.1453 3.19995C16.3253 1.37995 14.6053 0.199951 12.7453 0.199951C10.8853 0.199951 9.68526 1.01995 8.98526 1.89995C8.28526 1.01995 7.08527 0.199951 5.22527 0.199951C3.36527 0.199951 1.64527 1.37995 0.825267 3.19995C-0.0147327 5.09995 0.345266 7.19994 1.80527 8.83994C5.30527 12.7799 8.40527 15.56 8.44527 15.58C8.60527 15.72 8.78526 15.78 8.98526 15.78C9.18526 15.78 9.36527 15.72 9.52527 15.58C9.56527 15.56 12.6453 12.7599 16.1653 8.83994C17.6453 7.19994 18.0053 5.09995 17.1453 3.19995ZM14.9853 7.77996C12.3853 10.68 10.0253 12.96 9.00527 13.9C7.98527 12.9399 5.62527 10.68 3.02527 7.75996C1.98527 6.57996 1.72527 5.15995 2.30527 3.81995C2.84527 2.59995 4.02527 1.75996 5.24527 1.75996C7.62527 1.75996 8.16527 3.53996 8.22527 3.75996C8.30527 4.11996 8.62527 4.35996 8.98526 4.35996C9.34526 4.35996 9.66526 4.09996 9.76526 3.75996C9.82526 3.55996 10.3653 1.75996 12.7453 1.75996C13.9453 1.75996 15.1253 2.57995 15.6853 3.81995C16.2853 5.17995 16.0253 6.59996 14.9853 7.77996Z" fill="#ee2e2e"/>
</svg>
