<?xml version="1.0" encoding="UTF-8"?>
<!DOCTYPE svg PUBLIC "-//W3C//DTD SVG 1.1//EN" "http://www.w3.org/Graphics/SVG/1.1/DTD/svg11.dtd">
<!-- Creator: CorelDRAW 2018 (64-Bit) -->
<svg xmlns="http://www.w3.org/2000/svg" xml:space="preserve" width="322px" height="130px" version="1.1" style="shape-rendering:geometricPrecision; text-rendering:geometricPrecision; image-rendering:optimizeQuality; fill-rule:evenodd; clip-rule:evenodd"
viewBox="0 0 2612.69 1058.05"
 xmlns:xlink="http://www.w3.org/1999/xlink">
 <defs>
  <style type="text/css">
   <![CDATA[
    .fil0 {fill:#FEFEFE}
   ]]>
  </style>
 </defs>
 <g id="Слой_x0020_1">
  <metadata id="CorelCorpID_0Corel-Layer"/>
  <path class="fil0" d="M609.1 288.37c5.28,0 10.56,-1.05 15.83,-3.15 5.28,-2.1 9.5,-5.24 13.73,-9.43 4.22,-4.2 7.39,-8.39 9.5,-13.63 2.11,-5.25 3.16,-10.49 3.16,-15.74 0,-5.24 -1.05,-10.49 -3.16,-15.72 -2.11,-5.24 -5.28,-9.44 -8.45,-13.63 -4.22,-4.2 -8.44,-7.35 -13.72,-9.45 -5.28,-2.09 -10.56,-3.14 -16.89,-3.14l-126.68 0 0 83.89 126.68 0zm0 -223.36l-126.68 0 0 83.89 126.68 0c5.28,0 10.56,-1.04 15.83,-3.14 5.28,-2.1 9.5,-5.25 13.73,-9.44 4.22,-4.2 7.39,-8.39 9.5,-13.63 2.11,-5.25 3.16,-10.49 3.16,-16.78 0,-5.24 -1.05,-10.49 -3.16,-15.73 -2.11,-5.25 -5.28,-9.44 -9.5,-13.63 -4.23,-4.19 -8.45,-7.34 -13.73,-9.44 -4.22,-1.04 -10.55,-2.1 -15.83,-2.1zm68.62 112.2c20.06,18.88 29.56,41.95 29.56,70.27 0,13.62 -2.11,26.21 -7.4,37.74 -5.28,11.54 -12.66,22.03 -21.11,31.46 -8.44,8.39 -19,15.73 -31.66,20.98 -11.62,5.24 -24.29,7.33 -38.01,7.33l-182.63 0 0 -335.56 183.69 0c12.66,0 25.33,2.1 38,7.35 12.67,5.24 23.22,12.58 31.67,20.97 8.44,8.38 15.84,18.87 21.11,31.46 5.28,11.53 7.39,24.11 7.39,37.75 -1.05,27.26 -10.55,50.33 -30.61,70.25z"/>
  <polygon class="fil0" points="1030.34,9.43 1030.34,65.01 861.43,65.01 861.43,148.9 1030.34,148.9 1030.34,205.53 861.43,205.53 861.43,288.37 1030.34,288.37 1030.34,344.99 805.48,344.99 805.48,9.43 "/>
  <path class="fil0" d="M1246.71 232.79l99.23 0 -49.62 -98.57 -49.61 98.57zm127.73 55.58l-155.18 0 -28.5 56.62 -63.35 0 168.91 -335.56 168.91 335.56 -63.34 0 -27.45 -56.62z"/>
  <path class="fil0" d="M1798.79 205.53c0,38.79 -13.73,71.3 -41.16,99.62 -27.45,27.26 -61.24,40.9 -100.3,40.9 -38,0 -71.78,-13.64 -99.23,-40.9 -27.44,-27.27 -41.16,-60.83 -41.16,-99.62l0 -196.1 55.94 0 0 196.1c0,23.07 8.44,42.99 24.28,58.73 16.9,16.76 36.95,25.15 60.17,25.15 23.22,0 43.29,-8.39 59.12,-25.15 16.89,-16.78 25.34,-35.66 25.34,-58.73l0 -196.1 57 0 0 196.1z"/>
  <polygon class="fil0" points="1897.04,9.43 2178.89,9.43 2178.89,65.01 2065.93,65.01 2065.93,344.99 2009.98,344.99 2009.98,65.01 1897.04,65.01 "/>
  <polygon class="fil0" points="2540.9,9.43 2612.69,9.43 2473.35,185.6 2473.35,344.99 2417.4,344.99 2417.4,187.7 2275.95,9.43 2347.73,9.43 2443.79,131.08 "/>
  <path class="fil0" d="M113.96 0c-38,17.82 -63.34,45.09 -69.68,88.08l0 168.83 158.36 0 0 -168.83c-25.34,-34.6 -53.84,-63.96 -86.57,-88.08l-2.11 0z"/>
  <polygon class="fil0" points="223.81,615.54 223.81,267.39 23.24,267.39 23.24,615.54 12.67,643.85 12.67,672.16 234.36,672.16 234.36,643.85 "/>
  <polygon class="fil0" points="248.07,684.75 0,684.75 0,1054.9 248.07,1054.9 "/>
  <polygon class="fil0" points="492.97,829.46 492.97,1052.81 423.3,1052.81 423.3,512.77 492.97,512.77 492.97,759.19 660.82,759.19 660.82,512.77 731.55,512.77 731.55,1052.81 660.82,1052.81 660.82,829.46 "/>
  <path class="fil0" d="M1133.82 575.69c-57.01,0 -105.57,19.92 -146.74,59.77 -40.11,39.84 -60.18,89.13 -60.18,145.75 0,56.63 20.07,105.92 61.24,145.76 40.11,39.85 89.72,60.82 146.73,60.82 57.01,0 105.57,-19.92 146.74,-60.82 40.12,-39.84 60.17,-89.13 60.17,-145.76 0,-56.62 -20.05,-104.85 -60.17,-145.75 -42.23,-38.8 -90.79,-59.77 -147.79,-59.77zm196.35 10.49c53.84,53.47 81.29,119.53 81.29,195.03 0,76.56 -27.45,141.57 -81.29,195.05 -53.84,53.48 -120.35,80.74 -196.35,80.74 -77.07,0 -142.52,-27.26 -196.35,-80.74 -54.9,-53.48 -82.35,-118.49 -82.35,-193.99 0,-76.56 27.45,-141.57 81.29,-195.05 53.84,-53.47 120.34,-80.74 196.35,-80.74 77.06,-1.05 142.52,26.21 197.41,79.7z"/>
  <polygon class="fil0" points="1535.96,1052.81 1535.96,512.77 1605.63,512.77 1605.63,982.56 1799.87,982.56 1799.87,1052.81 "/>
  <polygon class="fil0" points="1989.86,512.77 1919.12,512.77 1919.12,1052.81 1989.86,1052.81 "/>
  <path class="fil0" d="M2549.38 923.83l52.76 47.18c-64.38,58.73 -131.95,87.04 -203.74,87.04 -77.06,0 -142.5,-27.26 -196.34,-80.74 -53.84,-53.48 -81.29,-118.5 -81.29,-195.04 0,-75.5 27.45,-140.51 81.29,-195.05 53.84,-53.47 119.28,-80.74 196.34,-80.74 71.79,0 139.36,29.37 203.74,87.03l-52.76 47.19c-48.57,-42.99 -99.24,-63.96 -150.98,-63.96 -57,0 -105.55,19.92 -145.68,59.77 -40.11,39.85 -60.17,88.08 -60.17,144.7 0,56.64 20.06,104.87 60.17,145.77 40.13,39.84 88.68,59.77 145.68,59.77 51.74,1.04 102.41,-19.93 150.98,-62.92z"/>
 </g>
</svg>
