<svg width="103" height="43" viewBox="0 0 103 43" fill="none" xmlns="http://www.w3.org/2000/svg">
<g clip-path="url(#clip0)">
<path fill-rule="evenodd" clip-rule="evenodd" d="M24.0121 12.0127C24.2202 12.0127 24.4283 11.9714 24.6363 11.8887C24.8444 11.806 25.0109 11.682 25.1773 11.5166C25.3438 11.3513 25.4687 11.1859 25.5519 10.9792C25.6351 10.7725 25.6767 10.5658 25.6767 10.3591C25.6767 10.1525 25.6351 9.94576 25.5519 9.73907C25.4687 9.53237 25.3438 9.36702 25.219 9.20166C25.0525 9.03631 24.886 8.91229 24.678 8.82961C24.4699 8.74694 24.2618 8.7056 24.0121 8.7056H19.0182V12.0127H24.0121ZM24.0121 3.20755H19.0182V6.51465H24.0121C24.2202 6.51465 24.4283 6.47331 24.6363 6.39063C24.8444 6.30795 25.0109 6.18394 25.1773 6.01858C25.3438 5.85323 25.4687 5.68787 25.5519 5.48118C25.6351 5.27449 25.6767 5.06779 25.6767 4.81976C25.6767 4.61307 25.6351 4.40637 25.5519 4.19968C25.4687 3.99299 25.3438 3.82763 25.1773 3.66228C25.0109 3.49692 24.8444 3.37291 24.6363 3.29023C24.4699 3.24889 24.2202 3.20755 24.0121 3.20755ZM26.7171 7.63079C27.5079 8.37489 27.8824 9.28434 27.8824 10.4005C27.8824 10.9379 27.7992 11.434 27.5911 11.8887C27.383 12.3434 27.0917 12.7568 26.7588 13.1288C26.4258 13.4595 26.0097 13.7489 25.5103 13.9556C25.0525 14.1623 24.5531 14.245 24.0121 14.245H16.8125V1.0166H24.0537C24.5531 1.0166 25.0525 1.09928 25.5519 1.30597C26.0513 1.51267 26.4675 1.80204 26.8004 2.13275C27.1333 2.46346 27.4246 2.87684 27.6327 3.37291C27.8408 3.82763 27.924 4.3237 27.924 4.8611C27.8824 5.93591 27.5079 6.84536 26.7171 7.63079Z" fill="black"/>
<path fill-rule="evenodd" clip-rule="evenodd" d="M40.6182 1.0166V3.20755H33.9596V6.51465H40.6182V8.74694H33.9596V12.0127H40.6182V14.245H31.7539V1.0166H40.6182Z" fill="black"/>
<path fill-rule="evenodd" clip-rule="evenodd" d="M49.1479 9.82174H53.0599L51.1039 5.93591L49.1479 9.82174ZM54.1835 12.0127H48.0659L46.9423 14.245H44.4453L51.1039 1.0166L57.7625 14.245H55.2655L54.1835 12.0127Z" fill="black"/>
<path fill-rule="evenodd" clip-rule="evenodd" d="M70.9123 8.74694C70.9123 10.2765 70.3713 11.558 69.2893 12.6741C68.2073 13.7489 66.8755 14.2863 65.3357 14.2863C63.8376 14.2863 62.5058 13.7489 61.4238 12.6741C60.3418 11.5993 59.8008 10.2765 59.8008 8.74694V1.0166H62.0064V8.74694C62.0064 9.65639 62.3394 10.4418 62.9636 11.0619C63.6295 11.7233 64.4202 12.054 65.3357 12.054C66.2513 12.054 67.042 11.7233 67.6662 11.0619C68.3321 10.4005 68.665 9.65639 68.665 8.74694V1.0166H70.9123V8.74694Z" fill="black"/>
<path fill-rule="evenodd" clip-rule="evenodd" d="M74.7852 1.0166H85.8967V3.20755H81.4437V14.245H79.2381V3.20755H74.7852V1.0166Z" fill="black"/>
<path fill-rule="evenodd" clip-rule="evenodd" d="M100.168 1.0166H102.998L97.5049 7.9615V14.245H95.2992V8.04418L89.7227 1.0166H92.5525L96.3396 5.81189L100.168 1.0166Z" fill="black"/>
<path fill-rule="evenodd" clip-rule="evenodd" d="M4.49276 0.644531C2.99458 1.34729 1.99579 2.42209 1.74609 4.11698V10.7725H7.98852V4.11698C6.98973 2.7528 5.86609 1.59532 4.57599 0.644531H4.49276Z" fill="#EE2E2E"/>
<path fill-rule="evenodd" clip-rule="evenodd" d="M8.82323 24.9102V11.1858H0.916162V24.9102L0.5 26.0264V27.1425H9.23939V26.0264L8.82323 24.9102Z" fill="black"/>
<path d="M9.7798 27.6387H0V42.2312H9.7798V27.6387Z" fill="black"/>
<path fill-rule="evenodd" clip-rule="evenodd" d="M19.4342 33.3434V42.1486H16.6875V20.8591H19.4342V30.5737H26.0511V20.8591H28.8394V42.1486H26.0511V33.3434H19.4342Z" fill="black"/>
<path fill-rule="evenodd" clip-rule="evenodd" d="M44.6976 23.3394C42.4503 23.3394 40.536 24.1248 38.913 25.6957C37.3315 27.2665 36.5408 29.2095 36.5408 31.4418C36.5408 33.674 37.3315 35.617 38.9546 37.1878C40.536 38.7587 42.4919 39.5855 44.7392 39.5855C46.9865 39.5855 48.9008 38.8 50.5239 37.1878C52.1053 35.617 52.896 33.674 52.896 31.4418C52.896 29.2095 52.1053 27.3079 50.5239 25.6957C48.8592 24.1661 46.9449 23.3394 44.6976 23.3394ZM52.4382 23.7528C54.5606 25.861 55.6426 28.4654 55.6426 31.4418C55.6426 34.4595 54.5606 37.0225 52.4382 39.1307C50.3158 41.239 47.694 42.3138 44.6976 42.3138C41.6596 42.3138 39.0794 41.239 36.957 39.1307C34.793 37.0225 33.7109 34.4595 33.7109 31.4831C33.7109 28.4654 34.793 25.9024 36.9154 23.7941C39.0378 21.6858 41.6596 20.611 44.656 20.611C47.694 20.5697 50.2742 21.6445 52.4382 23.7528Z" fill="black"/>
<path fill-rule="evenodd" clip-rule="evenodd" d="M60.5508 42.1486V20.8591H63.2975V39.3789H70.9548V42.1486H60.5508Z" fill="black"/>
<path d="M78.4445 20.8591H75.6562V42.1486H78.4445V20.8591Z" fill="black"/>
<path fill-rule="evenodd" clip-rule="evenodd" d="M100.502 37.0639L102.582 38.9241C100.044 41.2391 97.3804 42.3552 94.5505 42.3552C91.5125 42.3552 88.9323 41.2804 86.8099 39.1722C84.6875 37.0639 83.6055 34.5009 83.6055 31.4832C83.6055 28.5068 84.6875 25.9438 86.8099 23.7942C88.9323 21.6859 91.5125 20.6111 94.5505 20.6111C97.3804 20.6111 100.044 21.7686 102.582 24.0422L100.502 25.9024C98.5873 24.2076 96.5897 23.3808 94.5505 23.3808C92.3032 23.3808 90.3889 24.1662 88.8075 25.7371C87.2261 27.308 86.4354 29.2095 86.4354 31.4418C86.4354 33.6741 87.2261 35.5757 88.8075 37.1879C90.3889 38.7588 92.3032 39.5442 94.5505 39.5442C96.5897 39.5855 98.5873 38.7588 100.502 37.0639Z" fill="black"/>
</g>
<defs>
<clipPath id="clip0">
<rect width="103" height="41.7107" fill="white" transform="translate(0 0.644531)"/>
</clipPath>
</defs>
</svg>
